<?xml version="1.0" encoding="UTF-8"?>
<svg id="Layer_1" xmlns="http://www.w3.org/2000/svg" version="1.1" viewBox="0 0 690 690">
  <!-- Generator: Adobe Illustrator 30.2.1, SVG Export Plug-In . SVG Version: 2.1.1 Build 1)  -->
  <rect width="690" height="690" fill="#080b07"/>
  <path d="M183.43,211.98h-1.42c-.34-8.33-3.47-15.46-9.37-21.36-5.94-5.94-13.07-8.89-21.36-8.89h-6.24v-4.82h38.43v35.07h-.04ZM183.43,478.02v35.07h-38.43v-4.82h6.24c8.33,0,15.46-2.95,21.36-8.89,5.94-5.9,9.04-13.03,9.37-21.36h1.46ZM280.41,176.95v336.14h-98.44V176.95h98.44ZM413.88,332.98v24.01h-138.29v-24.01h138.29ZM278.96,211.98v-35.07h38.43v4.82h-6.24c-8.33,0-15.46,2.95-21.36,8.89-5.94,5.9-9.04,13.07-9.37,21.36h-1.46ZM278.96,478.02h1.42c.3,8.33,3.44,15.46,9.37,21.36,5.94,5.94,13.03,8.89,21.36,8.89h6.24v4.82h-38.43v-35.07h.04ZM411.01,211.98h-1.42c0-8.33-3.06-15.46-9.11-21.36-6.09-5.94-13.26-8.89-21.59-8.89h-6.24v-4.82h38.43v35.07h-.07ZM411.01,478.02v35.07h-38.43v-4.82h6.24c8.33,0,15.54-2.95,21.59-8.89,6.09-5.94,9.11-13.03,9.11-21.36h1.49ZM507.99,176.95v336.14h-98.44V176.95h98.44ZM506.57,211.98v-35.07h38.43v4.82h-6.24c-8.33,0-15.46,2.95-21.36,8.89-5.94,5.94-9.04,13.07-9.37,21.36h-1.46ZM506.57,478.02h1.42c.3,8.33,3.44,15.46,9.37,21.36,5.94,5.94,13.03,8.89,21.36,8.89h6.24v4.82h-38.43v-35.07h.04Z" fill="#b79b7b"/>
</svg>